<svg width="70" height="70" viewBox="0 0 70 70" fill="none" xmlns="http://www.w3.org/2000/svg">
<path d="M26.25 55.4167C11.6667 59.7917 11.6667 48.125 5.83334 46.6667M46.6667 64.1667V52.8792C46.7761 51.4884 46.5882 50.0903 46.1155 48.7777C45.6428 47.4652 44.8961 46.2683 43.925 45.2667C53.0833 44.2458 62.7083 40.775 62.7083 24.85C62.7076 20.7778 61.1412 16.8618 58.3333 13.9125C59.6629 10.3498 59.5689 6.41185 58.0708 2.91666C58.0708 2.91666 54.6292 1.89583 46.6667 7.23333C39.9817 5.42156 32.935 5.42156 26.25 7.23333C18.2875 1.89583 14.8458 2.91666 14.8458 2.91666C13.3478 6.41185 13.2538 10.3498 14.5833 13.9125C11.7545 16.8837 10.1865 20.8351 10.2083 24.9375C10.2083 40.7458 19.8333 44.2167 28.9917 45.3542C28.0321 46.3457 27.292 47.5283 26.8197 48.8248C26.3473 50.1213 26.1532 51.5027 26.25 52.8792V64.1667" stroke="black" stroke-width="2" stroke-linecap="round" stroke-linejoin="round"/>
</svg>
