<svg width="70" height="70" viewBox="0 0 70 70" fill="none" xmlns="http://www.w3.org/2000/svg">
<path d="M49.5833 5.83334H20.4167C12.3625 5.83334 5.83334 12.3625 5.83334 20.4167V49.5833C5.83334 57.6375 12.3625 64.1667 20.4167 64.1667H49.5833C57.6375 64.1667 64.1667 57.6375 64.1667 49.5833V20.4167C64.1667 12.3625 57.6375 5.83334 49.5833 5.83334Z" stroke="black" stroke-width="2" stroke-linecap="round" stroke-linejoin="round"/>
<path d="M46.6667 33.1625C47.0266 35.5899 46.612 38.069 45.4818 40.2471C44.3516 42.4253 42.5633 44.1916 40.3714 45.2949C38.1795 46.3981 35.6955 46.7822 33.2727 46.3923C30.8499 46.0025 28.6118 44.8586 26.8766 43.1234C25.1414 41.3882 23.9975 39.1501 23.6077 36.7273C23.2178 34.3045 23.6018 31.8205 24.7051 29.6286C25.8084 27.4367 27.5747 25.6484 29.7529 24.5182C31.931 23.388 34.4101 22.9734 36.8375 23.3333C39.3135 23.7005 41.6058 24.8543 43.3758 26.6242C45.1457 28.3942 46.2995 30.6865 46.6667 33.1625Z" stroke="black" stroke-width="2" stroke-linecap="round" stroke-linejoin="round"/>
<path d="M51.0417 18.9583H51.0708" stroke="black" stroke-width="2" stroke-linecap="round" stroke-linejoin="round"/>
</svg>
