<svg width="42" height="45" viewBox="0 0 42 45" fill="none" xmlns="http://www.w3.org/2000/svg">
<path d="M0.0667614 44L7.31108 0.363635H34.3707L33.4332 6.03125H12.9574L10.7415 19.3267H29.2784L28.3409 24.973H9.80398L6.65057 44H0.0667614ZM37.391 44.4048C36.1978 44.4048 35.2035 43.9929 34.408 43.169C33.6268 42.3452 33.2433 41.3366 33.2575 40.1435C33.2717 38.9645 33.712 37.9773 34.5785 37.1818C35.4592 36.3722 36.4819 35.9673 37.6467 35.9673C38.8114 35.9673 39.8058 36.3793 40.6296 37.2031C41.4535 38.027 41.837 39.0071 41.7802 40.1435C41.7376 40.9389 41.5103 41.6634 41.0984 42.3168C40.7006 42.956 40.1751 43.4673 39.5217 43.8509C38.8683 44.2202 38.158 44.4048 37.391 44.4048Z" fill="url(#paint0_linear_11_14)"/>
<defs>
<linearGradient id="paint0_linear_11_14" x1="23.5" y1="-14" x2="23.5" y2="59" gradientUnits="userSpaceOnUse">
<stop stop-color="#3BDE69"/>
<stop offset="1" stop-color="#9023E7"/>
</linearGradient>
</defs>
</svg>
