<svg width="70" height="70" viewBox="0 0 70 70" fill="none" xmlns="http://www.w3.org/2000/svg">
<path d="M65.7417 18.725C65.3952 17.3408 64.6896 16.0725 63.6961 15.0483C62.7026 14.024 61.4564 13.2801 60.0833 12.8917C55.0667 11.6667 35 11.6667 35 11.6667C35 11.6667 14.9333 11.6667 9.91668 13.0083C8.54365 13.3968 7.29744 14.1407 6.30394 15.1649C5.31043 16.1892 4.60481 17.4574 4.25834 18.8417C3.34022 23.9329 2.89111 29.0976 2.91668 34.2708C2.88395 39.483 3.33308 44.6871 4.25834 49.8167C4.64031 51.1579 5.36174 52.3779 6.35293 53.3589C7.34412 54.3399 8.57157 55.0486 9.91668 55.4167C14.9333 56.7583 35 56.7583 35 56.7583C35 56.7583 55.0667 56.7583 60.0833 55.4167C61.4564 55.0282 62.7026 54.2843 63.6961 53.2601C64.6896 52.2358 65.3952 50.9676 65.7417 49.5833C66.6527 44.5305 67.1018 39.4051 67.0833 34.2708C67.1161 29.0586 66.6669 23.8545 65.7417 18.725Z" fill="#FF0000" stroke="black" stroke-width="2" stroke-linecap="round" stroke-linejoin="round"/>
<path d="M28.4375 43.8083L45.2083 34.2708L28.4375 24.7333V43.8083Z" fill="white" stroke="black" stroke-width="2" stroke-linecap="round" stroke-linejoin="round"/>
</svg>
